<svg width="20" height="20" viewBox="0 0 20 20" fill="none" xmlns="http://www.w3.org/2000/svg">
<g id="icon/solid/github">
<path id="Vector" d="M10.0002 1.43555C8.8476 1.43555 7.70626 1.66257 6.64138 2.10366C5.5765 2.54475 4.60892 3.19127 3.79389 4.00629C2.14787 5.65232 1.22314 7.8848 1.22314 10.2126C1.22314 14.0921 3.74217 17.3835 7.22667 18.5509C7.66552 18.6211 7.80595 18.349 7.80595 18.112V16.6287C5.3747 17.1553 4.85685 15.4525 4.85685 15.4525C4.45311 14.4344 3.8826 14.1623 3.8826 14.1623C3.08389 13.6181 3.94404 13.6357 3.94404 13.6357C4.82175 13.6971 5.28693 14.5397 5.28693 14.5397C6.05054 15.8738 7.34077 15.4789 7.84106 15.2682C7.92006 14.6977 8.14826 14.3115 8.39402 14.0921C6.44551 13.8727 4.40045 13.1178 4.40045 9.77377C4.40045 8.79952 4.73398 8.01836 5.30449 7.39518C5.21672 7.17576 4.90952 6.26294 5.39226 5.07803C5.39226 5.07803 6.12953 4.84105 7.80595 5.9733C8.49934 5.7802 9.25417 5.68365 10.0002 5.68365C10.7463 5.68365 11.5011 5.7802 12.1945 5.9733C13.8709 4.84105 14.6082 5.07803 14.6082 5.07803C15.0909 6.26294 14.7837 7.17576 14.696 7.39518C15.2665 8.01836 15.6 8.79952 15.6 9.77377C15.6 13.1266 13.5462 13.8639 11.5889 14.0833C11.9048 14.3554 12.1945 14.8908 12.1945 15.7071V18.112C12.1945 18.349 12.3349 18.6298 12.7826 18.5509C16.2671 17.3747 18.7773 14.0921 18.7773 10.2126C18.7773 9.06 18.5503 7.91867 18.1092 6.85378C17.6681 5.7889 17.0216 4.82132 16.2066 4.00629C15.3915 3.19127 14.424 2.54475 13.3591 2.10366C12.2942 1.66257 11.1528 1.43555 10.0002 1.43555Z" fill="#111824"/>
</g>
</svg>
